<svg xmlns="http://www.w3.org/2000/svg" viewBox="0 0 256 256">
  <defs>
    <radialGradient id="g" cx="50%" cy="50%" r="60%">
      <stop offset="0%" stop-color="#ffd166"/>
      <stop offset="60%" stop-color="#ef476f"/>
      <stop offset="100%" stop-color="#118ab2"/>
    </radialGradient>
  </defs>
  <rect width="256" height="256" fill="#0b0b0f"/>
  <g transform="translate(128 128)">
    <path d="M 0 0 L 0 -8" stroke="#fff" stroke-width="2"/>
  </g>
  <path fill="none" stroke="url(#g)" stroke-width="12" stroke-linecap="round"
        d="M 128 128
           m 0 -8
           a 8 8 0 0 1 8 8
           a 13 13 0 0 1 -13 13
           a 21 21 0 0 1 21 -21
           a 34 34 0 0 1 -34 34
           a 55 55 0 0 1 55 -55
           a 89 89 0 0 1 -89 89"/>
  <circle cx="128" cy="128" r="4" fill="#ffd166"/>
</svg>
